<?xml version="1.0" encoding="UTF-8" standalone="no"?>
<!-- Generator: Adobe Illustrator 19.0.0, SVG Export Plug-In . SVG Version: 6.00 Build 0)  -->

<svg
   xmlns:dc="http://purl.org/dc/elements/1.1/"
   xmlns:cc="http://creativecommons.org/ns#"
   xmlns:rdf="http://www.w3.org/1999/02/22-rdf-syntax-ns#"
   xmlns:svg="http://www.w3.org/2000/svg"
   xmlns="http://www.w3.org/2000/svg"
   xmlns:sodipodi="http://sodipodi.sourceforge.net/DTD/sodipodi-0.dtd"
   xmlns:inkscape="http://www.inkscape.org/namespaces/inkscape"
   version="1.1"
   id="Capa_1"
   x="0px"
   y="0px"
   viewBox="0 0 512 512"
   style="enable-background:new 0 0 512 512;"
   xml:space="preserve"
   sodipodi:docname="quote.svg"
   inkscape:version="0.92.4 (5da689c313, 2019-01-14)"><metadata
   id="metadata43"><rdf:RDF><cc:Work
       rdf:about=""><dc:format>image/svg+xml</dc:format><dc:type
         rdf:resource="http://purl.org/dc/dcmitype/StillImage" /></cc:Work></rdf:RDF></metadata><defs
   id="defs41" /><sodipodi:namedview
   pagecolor="#ffffff"
   bordercolor="#666666"
   borderopacity="1"
   objecttolerance="10"
   gridtolerance="10"
   guidetolerance="10"
   inkscape:pageopacity="0"
   inkscape:pageshadow="2"
   inkscape:window-width="821"
   inkscape:window-height="480"
   id="namedview39"
   showgrid="false"
   inkscape:zoom="0.4609375"
   inkscape:cx="676.88136"
   inkscape:cy="256"
   inkscape:window-x="0"
   inkscape:window-y="25"
   inkscape:window-maximized="0"
   inkscape:current-layer="Capa_1" />
<g
   id="g6"
   style="fill:#000000;fill-opacity:0.12162162">
	<path
   style="fill:#000000;fill-opacity:0.12162162"
   d="M224.001,74.328c5.891,0,10.667-4.776,10.667-10.667s-4.776-10.667-10.667-10.667   c-123.653,0.141-223.859,100.347-224,224v64c-0.185,64.99,52.349,117.825,117.338,118.01   c64.99,0.185,117.825-52.349,118.01-117.338c0.185-64.99-52.349-117.825-117.338-118.01c-38.374-0.109-74.392,18.499-96.506,49.861   C23.48,163.049,113.514,74.485,224.001,74.328z"
   id="path2" />
	<path
   style="fill:#000000;fill-opacity:0.12162162"
   d="M394.667,223.662c-38.154,0.03-73.905,18.63-95.829,49.856   c1.976-110.469,92.01-199.033,202.496-199.189c5.891,0,10.667-4.776,10.667-10.667s-4.776-10.667-10.667-10.667   c-123.653,0.141-223.859,100.347-224,224v64c0,64.801,52.532,117.333,117.333,117.333S512,405.796,512,340.995   S459.469,223.662,394.667,223.662z"
   id="path4" />
</g>
<g
   id="g8">
</g>
<g
   id="g10">
</g>
<g
   id="g12">
</g>
<g
   id="g14">
</g>
<g
   id="g16">
</g>
<g
   id="g18">
</g>
<g
   id="g20">
</g>
<g
   id="g22">
</g>
<g
   id="g24">
</g>
<g
   id="g26">
</g>
<g
   id="g28">
</g>
<g
   id="g30">
</g>
<g
   id="g32">
</g>
<g
   id="g34">
</g>
<g
   id="g36">
</g>
</svg>